# xmcd CD database file
#
# Track frame offsets:
#	150
#	68262
#	92113
#	144276
#	180458
#	213033
#	231089
#	261640
#	296290
#	326514
#
# Disc length: 4542 seconds
#
# Revision: 0
# Processed by: cddbd v1.5.2PL0 Copyright (c) Steve Scherf et al.
# Submitted via: CDex 1.83
#
DISCID=8511bc0a
DTITLE=Clifford Brown - 13 Classic Albums CD02
DYEAR=1955
DGENRE=Jazz
TTITLE0=What Is This Thing Called Love
TTITLE1=Darn That Dream
TTITLE2=My Funny Valentine Don't Worry 'Bout Me Bess You Is My Woman Now It Might as Well Be Spring
TTITLE3=Delilah
TTITLE4=Parisian Thoroughfare
TTITLE5=Saahoud
TTITLE6=Joy Spring
TTITLE7=Jordu
TTITLE8=The Blues Walk
TTITLE9=What Am I Here For
EXTD=YEAR: 1955
EXTT0=
EXTT1=
EXTT2=
EXTT3=
EXTT4=
EXTT5=
EXTT6=
EXTT7=
EXTT8=
EXTT9=
PLAYORDER=
